<svg width="16" height="15" viewBox="0 0 16 15" fill="none" xmlns="http://www.w3.org/2000/svg">
<path d="M7.5586 1.35188C9.56111 1.35188 9.79861 1.35938 10.5899 1.39563C12.6224 1.48813 13.5717 2.4525 13.6642 4.47001C13.7005 5.26063 13.7074 5.49813 13.7074 7.50063C13.7074 9.50376 13.6999 9.74064 13.6642 10.5313C13.5711 12.5469 12.6242 13.5131 10.5899 13.6056C9.79861 13.6419 9.56236 13.6494 7.5586 13.6494C5.5561 13.6494 5.3186 13.6419 4.52797 13.6056C2.49047 13.5125 1.5461 12.5438 1.4536 10.5306C1.41735 9.74001 1.40985 9.50314 1.40985 7.50001C1.40985 5.49751 1.41797 5.26063 1.4536 4.46938C1.54672 2.4525 2.4936 1.4875 4.52797 1.395C5.31923 1.35938 5.5561 1.35188 7.5586 1.35188ZM7.5586 0C5.52173 0 5.26673 0.00875001 4.46672 0.0450001C1.74297 0.17 0.229219 1.68125 0.104219 4.40751C0.0673438 5.20813 0.0585938 5.46313 0.0585938 7.50001C0.0585938 9.53689 0.0673438 9.79251 0.103594 10.5925C0.228594 13.3163 1.73985 14.83 4.4661 14.955C5.26673 14.9913 5.52173 15 7.5586 15C9.59548 15 9.85111 14.9913 10.6511 14.955C13.3724 14.83 14.8899 13.3188 15.013 10.5925C15.0499 9.79251 15.0586 9.53689 15.0586 7.50001C15.0586 5.46313 15.0499 5.20813 15.0136 4.40813C14.8911 1.68688 13.378 0.170625 10.6517 0.0456251C9.85111 0.00875001 9.59548 0 7.5586 0ZM7.5586 3.64875C5.43173 3.64875 3.70735 5.37313 3.70735 7.50001C3.70735 9.62689 5.43173 11.3519 7.5586 11.3519C9.68548 11.3519 11.4099 9.62751 11.4099 7.50001C11.4099 5.37313 9.68548 3.64875 7.5586 3.64875ZM7.5586 10C6.17798 10 5.0586 8.88126 5.0586 7.50001C5.0586 6.11938 6.17798 5.00001 7.5586 5.00001C8.93923 5.00001 10.0586 6.11938 10.0586 7.50001C10.0586 8.88126 8.93923 10 7.5586 10ZM11.5624 2.59688C11.0649 2.59688 10.6617 3 10.6617 3.49688C10.6617 3.99375 11.0649 4.39688 11.5624 4.39688C12.0592 4.39688 12.4617 3.99375 12.4617 3.49688C12.4617 3 12.0592 2.59688 11.5624 2.59688Z" fill="white"/>
</svg>