<svg width="15" height="15" viewBox="0 0 15 15" fill="none" xmlns="http://www.w3.org/2000/svg">
<g clip-path="url(#clip0)">
<path d="M14.572 10.6003L11.2907 9.19407C11.1506 9.13433 10.9948 9.12174 10.8468 9.1582C10.6989 9.19466 10.5668 9.27819 10.4704 9.39622L9.01729 11.1716C6.73674 10.0964 4.90143 8.26104 3.82617 5.98049L5.60156 4.52737C5.71983 4.43118 5.80353 4.29908 5.84001 4.15107C5.87648 4.00305 5.86374 3.84718 5.80371 3.70706L4.39746 0.425808C4.33158 0.274756 4.21505 0.151427 4.06797 0.0770875C3.9209 0.0027476 3.75249 -0.0179435 3.5918 0.018582L0.544922 0.721707C0.389991 0.757484 0.251761 0.844718 0.152793 0.969173C0.0538257 1.09363 -3.56897e-05 1.24795 1.77428e-08 1.40696C1.77428e-08 8.92161 6.09082 15.0007 13.5938 15.0007C13.7528 15.0008 13.9072 14.947 14.0317 14.848C14.1562 14.749 14.2435 14.6108 14.2793 14.4558L14.9824 11.4089C15.0187 11.2474 14.9976 11.0784 14.9227 10.9308C14.8478 10.7832 14.7237 10.6663 14.572 10.6003Z" fill="white"/>
</g>
<defs>
<clipPath id="clip0">
<rect width="15" height="15" fill="white"/>
</clipPath>
</defs>
</svg>
