<svg width="16" height="14" viewBox="0 0 16 14" fill="none" xmlns="http://www.w3.org/2000/svg">
<path d="M15.3526 2.22719C14.8007 2.47546 14.2076 2.64267 13.5851 2.71804C14.2207 2.33232 14.7088 1.72114 14.9382 0.992778C14.3438 1.34999 13.6851 1.60967 12.9838 1.74964C12.4232 1.14352 11.6226 0.764771 10.7376 0.764771C8.75067 0.764771 7.29067 2.6433 7.73942 4.5934C5.18255 4.46356 2.91504 3.22219 1.39692 1.33542C0.590664 2.73704 0.97879 4.5706 2.34879 5.4991C1.84504 5.48263 1.37004 5.34266 0.955665 5.10895C0.921915 6.55364 1.94379 7.90521 3.42379 8.20606C2.99067 8.32513 2.51629 8.353 2.03379 8.25926C2.42504 9.4981 3.56129 10.3994 4.90879 10.4247C3.61504 11.4526 1.98504 11.9118 0.352539 11.7167C1.71442 12.6015 3.33254 13.1177 5.07004 13.1177C10.7838 13.1177 14.0119 8.22759 13.8169 3.84161C14.4182 3.40143 14.9401 2.85231 15.3526 2.22719Z" fill="white"/>
</svg>
