<svg height="512pt" viewBox="0 -100 512 511" width="512pt" fill="rgba(30, 188, 97, 1)" xmlns="http://www.w3.org/2000/svg"><path d="m497 201.332031h-32.28125c-9.703125-36.839843-28.984375-70.375-56.21875-97.566406-12.898438-12.878906-27.21875-23.964844-42.636719-33.097656h37.894531c6.550782 23.148437 27.855469 40.164062 53.074219 40.164062 30.417969 0 55.167969-24.746093 55.167969-55.164062 0-30.421875-24.746094-55.167969-55.167969-55.167969-25.21875 0-46.523437 17.015625-53.074219 40.167969h-92.589843v-25.167969c0-8.285156-6.71875-15-15-15h-80.335938c-8.28125 0-15 6.714844-15 15v25.167969h-92.589843c-6.550782-23.152344-27.855469-40.167969-53.074219-40.167969-30.421875 0-55.167969 24.746094-55.167969 55.167969 0 30.417969 24.746094 55.164062 55.167969 55.164062 25.21875 0 46.523437-17.015625 53.074219-40.164062h37.890624c-15.464843 9.160156-29.824218 20.289062-42.753906 33.21875-27.171875 27.171875-46.40625 60.660156-56.09375 97.445312h-32.285156c-8.285156 0-15 6.71875-15 15v80.335938c0 8.28125 6.714844 15 15 15h80.332031c8.285157 0 15-6.71875 15-15v-80.335938c0-8.28125-6.714843-15-15-15h-16.851562c18.074219-58.539062 63.8125-104.277343 122.351562-122.351562v16.851562c0 8.285157 6.71875 15 15 15h80.335938c8.28125 0 15-6.714843 15-15v-16.851562c58.519531 18.074219 104.277343 63.820312 122.351562 122.351562h-16.851562c-8.285157 0-15 6.71875-15 15v80.335938c0 8.28125 6.714843 15 15 15h80.332031c8.285156 0 15-6.71875 15-15v-80.335938c0-8.285156-6.714844-15-15-15zm-416.667969 80.332031h-50.332031v-50.332031h29.140625c.019531 0 .039063.003907.058594.003907.023437 0 .042969-.003907.066406-.003907h21.070313v50.332031zm376.5-251.164062c13.878907 0 25.167969 11.289062 25.167969 25.167969 0 13.875-11.289062 25.164062-25.167969 25.164062-13.875 0-25.164062-11.289062-25.164062-25.164062 0-13.878907 11.289062-25.167969 25.164062-25.167969zm-401.664062 50.332031c-13.878907 0-25.167969-11.289062-25.167969-25.164062 0-13.878907 11.289062-25.167969 25.167969-25.167969 13.875 0 25.164062 11.289062 25.164062 25.167969 0 13.875-11.289062 25.164062-25.164062 25.164062zm175.664062 0v-50.332031h50.335938v29.0625c-.003907.105469-.003907.207031 0 .308594v20.960937zm251.167969 200.832031h-50.332031v-50.332031h50.332031zm0 0"/></svg>